<mxfile host="app.diagrams.net" modified="2024-01-13T09:06:46.947Z" agent="Mozilla/5.0 (Macintosh; Intel Mac OS X 10_15_7) AppleWebKit/537.36 (KHTML, like Gecko) Chrome/120.0.0.0 Safari/537.36" etag="yPsboFnWwbgzzcYP6oyA" version="22.1.18" type="github">
  <diagram name="Page-1" id="lzS53_VMegoXGp0ri_2f">
    <mxGraphModel dx="1876" dy="2831" grid="1" gridSize="10" guides="1" tooltips="1" connect="1" arrows="1" fold="1" page="1" pageScale="1" pageWidth="850" pageHeight="1100" math="0" shadow="0">
      <root>
        <mxCell id="0" />
        <mxCell id="1" parent="0" />
        <mxCell id="cUA_J7pzqEzgrtuvgDa_-1" value="" style="edgeStyle=orthogonalEdgeStyle;rounded=0;orthogonalLoop=1;jettySize=auto;html=1;" edge="1" parent="1" source="cUA_J7pzqEzgrtuvgDa_-2" target="cUA_J7pzqEzgrtuvgDa_-14">
          <mxGeometry relative="1" as="geometry" />
        </mxCell>
        <mxCell id="cUA_J7pzqEzgrtuvgDa_-2" value="Write Config" style="rounded=0;whiteSpace=wrap;html=1;fillColor=#e1d5e7;strokeColor=#9673a6;" vertex="1" parent="1">
          <mxGeometry x="1000" y="-160" width="120" height="40" as="geometry" />
        </mxCell>
        <mxCell id="cUA_J7pzqEzgrtuvgDa_-3" value="Config Post Data" style="rounded=0;whiteSpace=wrap;html=1;fillColor=#ffe6cc;strokeColor=#d79b00;" vertex="1" parent="1">
          <mxGeometry x="1160" y="-120" width="120" height="40" as="geometry" />
        </mxCell>
        <mxCell id="cUA_J7pzqEzgrtuvgDa_-4" value="" style="endArrow=classic;html=1;rounded=0;exitX=1;exitY=0.5;exitDx=0;exitDy=0;entryX=0;entryY=0.5;entryDx=0;entryDy=0;" edge="1" parent="1" source="cUA_J7pzqEzgrtuvgDa_-2" target="cUA_J7pzqEzgrtuvgDa_-3">
          <mxGeometry width="50" height="50" relative="1" as="geometry">
            <mxPoint x="1050" y="20" as="sourcePoint" />
            <mxPoint x="1100" y="-30" as="targetPoint" />
          </mxGeometry>
        </mxCell>
        <mxCell id="cUA_J7pzqEzgrtuvgDa_-5" value="DC" style="rounded=0;whiteSpace=wrap;html=1;fillColor=#e1d5e7;strokeColor=#9673a6;" vertex="1" parent="1">
          <mxGeometry x="1000" y="-280" width="120" height="40" as="geometry" />
        </mxCell>
        <mxCell id="cUA_J7pzqEzgrtuvgDa_-6" value="Task List" style="rounded=0;whiteSpace=wrap;html=1;fillColor=#ffe6cc;strokeColor=#d79b00;" vertex="1" parent="1">
          <mxGeometry x="1160" y="-280" width="120" height="40" as="geometry" />
        </mxCell>
        <mxCell id="cUA_J7pzqEzgrtuvgDa_-7" value="DMA Engine" style="rounded=0;whiteSpace=wrap;html=1;fillColor=#d5e8d4;strokeColor=#82b366;" vertex="1" parent="1">
          <mxGeometry x="1320" y="-280" width="120" height="40" as="geometry" />
        </mxCell>
        <mxCell id="cUA_J7pzqEzgrtuvgDa_-8" value="Link" style="rounded=0;whiteSpace=wrap;html=1;fillColor=#f8cecc;strokeColor=#b85450;" vertex="1" parent="1">
          <mxGeometry x="1480" y="-280" width="120" height="40" as="geometry" />
        </mxCell>
        <mxCell id="cUA_J7pzqEzgrtuvgDa_-9" value="DMA Engine" style="rounded=0;whiteSpace=wrap;html=1;fillColor=#d5e8d4;strokeColor=#82b366;" vertex="1" parent="1">
          <mxGeometry x="1320" y="-80" width="120" height="40" as="geometry" />
        </mxCell>
        <mxCell id="cUA_J7pzqEzgrtuvgDa_-10" value="" style="endArrow=classic;html=1;rounded=0;exitX=0;exitY=0.5;exitDx=0;exitDy=0;entryX=1;entryY=0.5;entryDx=0;entryDy=0;" edge="1" parent="1" source="cUA_J7pzqEzgrtuvgDa_-11" target="cUA_J7pzqEzgrtuvgDa_-15">
          <mxGeometry width="50" height="50" relative="1" as="geometry">
            <mxPoint x="1130" y="-130" as="sourcePoint" />
            <mxPoint x="1280" y="-20" as="targetPoint" />
          </mxGeometry>
        </mxCell>
        <mxCell id="cUA_J7pzqEzgrtuvgDa_-11" value="Add Reply Value" style="rounded=0;whiteSpace=wrap;html=1;fillColor=#d5e8d4;strokeColor=#82b366;" vertex="1" parent="1">
          <mxGeometry x="1320" width="120" height="40" as="geometry" />
        </mxCell>
        <mxCell id="cUA_J7pzqEzgrtuvgDa_-12" value="" style="edgeStyle=orthogonalEdgeStyle;rounded=0;orthogonalLoop=1;jettySize=auto;html=1;" edge="1" parent="1" source="cUA_J7pzqEzgrtuvgDa_-14" target="cUA_J7pzqEzgrtuvgDa_-17">
          <mxGeometry relative="1" as="geometry" />
        </mxCell>
        <mxCell id="cUA_J7pzqEzgrtuvgDa_-13" value="" style="edgeStyle=orthogonalEdgeStyle;rounded=0;orthogonalLoop=1;jettySize=auto;html=1;" edge="1" parent="1" source="cUA_J7pzqEzgrtuvgDa_-14" target="cUA_J7pzqEzgrtuvgDa_-15">
          <mxGeometry relative="1" as="geometry" />
        </mxCell>
        <mxCell id="cUA_J7pzqEzgrtuvgDa_-14" value="Check" style="rounded=0;whiteSpace=wrap;html=1;fillColor=#e1d5e7;strokeColor=#9673a6;" vertex="1" parent="1">
          <mxGeometry x="1000" y="40" width="120" height="40" as="geometry" />
        </mxCell>
        <mxCell id="cUA_J7pzqEzgrtuvgDa_-15" value="Reply Address" style="rounded=0;whiteSpace=wrap;html=1;fillColor=#ffe6cc;strokeColor=#d79b00;" vertex="1" parent="1">
          <mxGeometry x="1160" y="40" width="120" height="40" as="geometry" />
        </mxCell>
        <mxCell id="cUA_J7pzqEzgrtuvgDa_-16" value="" style="edgeStyle=orthogonalEdgeStyle;rounded=0;orthogonalLoop=1;jettySize=auto;html=1;" edge="1" parent="1" source="cUA_J7pzqEzgrtuvgDa_-17" target="cUA_J7pzqEzgrtuvgDa_-34">
          <mxGeometry relative="1" as="geometry" />
        </mxCell>
        <mxCell id="cUA_J7pzqEzgrtuvgDa_-17" value="Write Config" style="rounded=0;whiteSpace=wrap;html=1;fillColor=#e1d5e7;strokeColor=#9673a6;" vertex="1" parent="1">
          <mxGeometry x="1000" y="120" width="120" height="40" as="geometry" />
        </mxCell>
        <mxCell id="cUA_J7pzqEzgrtuvgDa_-18" value="Config Post Flag" style="rounded=0;whiteSpace=wrap;html=1;fillColor=#ffe6cc;strokeColor=#d79b00;" vertex="1" parent="1">
          <mxGeometry x="1160" y="160" width="120" height="40" as="geometry" />
        </mxCell>
        <mxCell id="cUA_J7pzqEzgrtuvgDa_-19" value="" style="endArrow=classic;html=1;rounded=0;exitX=1;exitY=0.5;exitDx=0;exitDy=0;entryX=0;entryY=0.5;entryDx=0;entryDy=0;" edge="1" parent="1" source="cUA_J7pzqEzgrtuvgDa_-3" target="cUA_J7pzqEzgrtuvgDa_-9">
          <mxGeometry width="50" height="50" relative="1" as="geometry">
            <mxPoint x="1130" y="-130" as="sourcePoint" />
            <mxPoint x="1170" y="-90" as="targetPoint" />
          </mxGeometry>
        </mxCell>
        <mxCell id="cUA_J7pzqEzgrtuvgDa_-20" value="" style="endArrow=classic;html=1;rounded=0;exitX=1;exitY=0.5;exitDx=0;exitDy=0;entryX=0;entryY=0.5;entryDx=0;entryDy=0;" edge="1" parent="1" source="cUA_J7pzqEzgrtuvgDa_-17" target="cUA_J7pzqEzgrtuvgDa_-18">
          <mxGeometry width="50" height="50" relative="1" as="geometry">
            <mxPoint x="1130" y="-170" as="sourcePoint" />
            <mxPoint x="1170" y="-130" as="targetPoint" />
          </mxGeometry>
        </mxCell>
        <mxCell id="cUA_J7pzqEzgrtuvgDa_-21" value="" style="edgeStyle=orthogonalEdgeStyle;rounded=0;orthogonalLoop=1;jettySize=auto;html=1;" edge="1" parent="1" source="cUA_J7pzqEzgrtuvgDa_-22" target="cUA_J7pzqEzgrtuvgDa_-24">
          <mxGeometry relative="1" as="geometry" />
        </mxCell>
        <mxCell id="cUA_J7pzqEzgrtuvgDa_-22" value="DMA Engine" style="rounded=0;whiteSpace=wrap;html=1;fillColor=#d5e8d4;strokeColor=#82b366;" vertex="1" parent="1">
          <mxGeometry x="1320" y="200" width="120" height="40" as="geometry" />
        </mxCell>
        <mxCell id="cUA_J7pzqEzgrtuvgDa_-23" value="" style="endArrow=classic;html=1;rounded=0;exitX=0;exitY=0.5;exitDx=0;exitDy=0;entryX=1;entryY=0.5;entryDx=0;entryDy=0;" edge="1" parent="1" source="cUA_J7pzqEzgrtuvgDa_-24">
          <mxGeometry width="50" height="50" relative="1" as="geometry">
            <mxPoint x="1130" y="150" as="sourcePoint" />
            <mxPoint x="1280" y="340" as="targetPoint" />
          </mxGeometry>
        </mxCell>
        <mxCell id="cUA_J7pzqEzgrtuvgDa_-24" value="Add Reply Value" style="rounded=0;whiteSpace=wrap;html=1;fillColor=#d5e8d4;strokeColor=#82b366;" vertex="1" parent="1">
          <mxGeometry x="1320" y="280" width="120" height="40" as="geometry" />
        </mxCell>
        <mxCell id="cUA_J7pzqEzgrtuvgDa_-25" value="" style="endArrow=classic;html=1;rounded=0;exitX=1;exitY=0.5;exitDx=0;exitDy=0;entryX=0;entryY=0.5;entryDx=0;entryDy=0;" edge="1" parent="1" target="cUA_J7pzqEzgrtuvgDa_-22">
          <mxGeometry width="50" height="50" relative="1" as="geometry">
            <mxPoint x="1280" y="180" as="sourcePoint" />
            <mxPoint x="1170" y="190" as="targetPoint" />
          </mxGeometry>
        </mxCell>
        <mxCell id="cUA_J7pzqEzgrtuvgDa_-26" value="Reply Address" style="rounded=0;whiteSpace=wrap;html=1;fillColor=#ffe6cc;strokeColor=#d79b00;" vertex="1" parent="1">
          <mxGeometry x="1160" y="320" width="120" height="40" as="geometry" />
        </mxCell>
        <mxCell id="cUA_J7pzqEzgrtuvgDa_-27" value="" style="edgeStyle=orthogonalEdgeStyle;rounded=0;orthogonalLoop=1;jettySize=auto;html=1;" edge="1" parent="1" source="cUA_J7pzqEzgrtuvgDa_-29" target="cUA_J7pzqEzgrtuvgDa_-26">
          <mxGeometry relative="1" as="geometry" />
        </mxCell>
        <mxCell id="cUA_J7pzqEzgrtuvgDa_-28" value="" style="edgeStyle=orthogonalEdgeStyle;rounded=0;orthogonalLoop=1;jettySize=auto;html=1;" edge="1" parent="1" source="cUA_J7pzqEzgrtuvgDa_-29" target="cUA_J7pzqEzgrtuvgDa_-44">
          <mxGeometry relative="1" as="geometry" />
        </mxCell>
        <mxCell id="cUA_J7pzqEzgrtuvgDa_-29" value="Check" style="rounded=0;whiteSpace=wrap;html=1;fillColor=#e1d5e7;strokeColor=#9673a6;" vertex="1" parent="1">
          <mxGeometry x="1000" y="320" width="120" height="40" as="geometry" />
        </mxCell>
        <mxCell id="cUA_J7pzqEzgrtuvgDa_-30" value="Link" style="rounded=0;whiteSpace=wrap;html=1;fillColor=#f8cecc;strokeColor=#b85450;" vertex="1" parent="1">
          <mxGeometry x="1480" y="-40" width="120" height="40" as="geometry" />
        </mxCell>
        <mxCell id="cUA_J7pzqEzgrtuvgDa_-31" value="" style="endArrow=classic;html=1;rounded=0;exitX=1;exitY=0.5;exitDx=0;exitDy=0;entryX=0;entryY=0.5;entryDx=0;entryDy=0;" edge="1" parent="1" source="cUA_J7pzqEzgrtuvgDa_-9" target="cUA_J7pzqEzgrtuvgDa_-30">
          <mxGeometry width="50" height="50" relative="1" as="geometry">
            <mxPoint x="1290" y="-90" as="sourcePoint" />
            <mxPoint x="1330" y="-50" as="targetPoint" />
          </mxGeometry>
        </mxCell>
        <mxCell id="cUA_J7pzqEzgrtuvgDa_-32" value="" style="endArrow=classic;html=1;rounded=0;exitX=0;exitY=0.5;exitDx=0;exitDy=0;entryX=1;entryY=0.5;entryDx=0;entryDy=0;" edge="1" parent="1" source="cUA_J7pzqEzgrtuvgDa_-30" target="cUA_J7pzqEzgrtuvgDa_-11">
          <mxGeometry width="50" height="50" relative="1" as="geometry">
            <mxPoint x="1450" y="-50" as="sourcePoint" />
            <mxPoint x="1490" y="-10" as="targetPoint" />
          </mxGeometry>
        </mxCell>
        <mxCell id="cUA_J7pzqEzgrtuvgDa_-33" value="" style="edgeStyle=orthogonalEdgeStyle;rounded=0;orthogonalLoop=1;jettySize=auto;html=1;" edge="1" parent="1" source="cUA_J7pzqEzgrtuvgDa_-34" target="cUA_J7pzqEzgrtuvgDa_-29">
          <mxGeometry relative="1" as="geometry" />
        </mxCell>
        <mxCell id="cUA_J7pzqEzgrtuvgDa_-34" value="Ca&amp;amp;Config&amp;amp;DMA" style="rounded=0;whiteSpace=wrap;html=1;fillColor=#e1d5e7;strokeColor=#9673a6;" vertex="1" parent="1">
          <mxGeometry x="1000" y="220" width="120" height="40" as="geometry" />
        </mxCell>
        <mxCell id="cUA_J7pzqEzgrtuvgDa_-35" value="Link" style="rounded=0;whiteSpace=wrap;html=1;fillColor=#f8cecc;strokeColor=#b85450;" vertex="1" parent="1">
          <mxGeometry x="1480" y="240" width="120" height="40" as="geometry" />
        </mxCell>
        <mxCell id="cUA_J7pzqEzgrtuvgDa_-36" value="" style="endArrow=classic;html=1;rounded=0;exitX=1;exitY=0.5;exitDx=0;exitDy=0;entryX=0;entryY=0.5;entryDx=0;entryDy=0;" edge="1" parent="1" target="cUA_J7pzqEzgrtuvgDa_-35">
          <mxGeometry width="50" height="50" relative="1" as="geometry">
            <mxPoint x="1440" y="220" as="sourcePoint" />
            <mxPoint x="1330" y="230" as="targetPoint" />
          </mxGeometry>
        </mxCell>
        <mxCell id="cUA_J7pzqEzgrtuvgDa_-37" value="" style="endArrow=classic;html=1;rounded=0;exitX=0;exitY=0.5;exitDx=0;exitDy=0;entryX=1;entryY=0.5;entryDx=0;entryDy=0;" edge="1" parent="1" source="cUA_J7pzqEzgrtuvgDa_-35">
          <mxGeometry width="50" height="50" relative="1" as="geometry">
            <mxPoint x="1450" y="230" as="sourcePoint" />
            <mxPoint x="1440" y="300" as="targetPoint" />
          </mxGeometry>
        </mxCell>
        <mxCell id="cUA_J7pzqEzgrtuvgDa_-38" value="" style="edgeStyle=orthogonalEdgeStyle;rounded=0;orthogonalLoop=1;jettySize=auto;html=1;" edge="1" parent="1" source="cUA_J7pzqEzgrtuvgDa_-39" target="cUA_J7pzqEzgrtuvgDa_-41">
          <mxGeometry relative="1" as="geometry" />
        </mxCell>
        <mxCell id="cUA_J7pzqEzgrtuvgDa_-39" value="Check Free Flag" style="rounded=0;whiteSpace=wrap;html=1;fillColor=#e1d5e7;strokeColor=#9673a6;" vertex="1" parent="1">
          <mxGeometry x="1000" y="480" width="120" height="40" as="geometry" />
        </mxCell>
        <mxCell id="cUA_J7pzqEzgrtuvgDa_-40" value="Link" style="rounded=0;whiteSpace=wrap;html=1;fillColor=#f8cecc;strokeColor=#b85450;" vertex="1" parent="1">
          <mxGeometry x="1480" y="400" width="120" height="40" as="geometry" />
        </mxCell>
        <mxCell id="cUA_J7pzqEzgrtuvgDa_-41" value="Free Flag" style="rounded=0;whiteSpace=wrap;html=1;fillColor=#ffe6cc;strokeColor=#d79b00;" vertex="1" parent="1">
          <mxGeometry x="1160" y="480" width="120" height="40" as="geometry" />
        </mxCell>
        <mxCell id="cUA_J7pzqEzgrtuvgDa_-42" value="" style="endArrow=classic;html=1;rounded=0;exitX=0;exitY=0.5;exitDx=0;exitDy=0;entryX=1;entryY=0.5;entryDx=0;entryDy=0;" edge="1" parent="1" source="cUA_J7pzqEzgrtuvgDa_-40" target="cUA_J7pzqEzgrtuvgDa_-41">
          <mxGeometry width="50" height="50" relative="1" as="geometry">
            <mxPoint x="1330" y="310" as="sourcePoint" />
            <mxPoint x="1290" y="350" as="targetPoint" />
          </mxGeometry>
        </mxCell>
        <mxCell id="cUA_J7pzqEzgrtuvgDa_-43" value="" style="edgeStyle=orthogonalEdgeStyle;rounded=0;orthogonalLoop=1;jettySize=auto;html=1;" edge="1" parent="1" source="cUA_J7pzqEzgrtuvgDa_-44" target="cUA_J7pzqEzgrtuvgDa_-39">
          <mxGeometry relative="1" as="geometry" />
        </mxCell>
        <mxCell id="cUA_J7pzqEzgrtuvgDa_-44" value="Ca&amp;amp;Config&amp;amp;DMA" style="rounded=0;whiteSpace=wrap;html=1;fillColor=#e1d5e7;strokeColor=#9673a6;" vertex="1" parent="1">
          <mxGeometry x="1000" y="400" width="120" height="40" as="geometry" />
        </mxCell>
        <mxCell id="cUA_J7pzqEzgrtuvgDa_-45" value="" style="edgeStyle=orthogonalEdgeStyle;rounded=0;orthogonalLoop=1;jettySize=auto;html=1;" edge="1" parent="1" source="cUA_J7pzqEzgrtuvgDa_-46" target="cUA_J7pzqEzgrtuvgDa_-58">
          <mxGeometry relative="1" as="geometry" />
        </mxCell>
        <mxCell id="cUA_J7pzqEzgrtuvgDa_-46" value="Write Config" style="rounded=0;whiteSpace=wrap;html=1;fillColor=#e1d5e7;strokeColor=#9673a6;" vertex="1" parent="1">
          <mxGeometry x="2440" y="-160" width="120" height="40" as="geometry" />
        </mxCell>
        <mxCell id="cUA_J7pzqEzgrtuvgDa_-47" value="Config Post &lt;br&gt;Data With Flag" style="rounded=0;whiteSpace=wrap;html=1;fillColor=#ffe6cc;strokeColor=#d79b00;" vertex="1" parent="1">
          <mxGeometry x="2600" y="-120" width="120" height="40" as="geometry" />
        </mxCell>
        <mxCell id="cUA_J7pzqEzgrtuvgDa_-48" value="" style="endArrow=classic;html=1;rounded=0;exitX=1;exitY=0.5;exitDx=0;exitDy=0;entryX=0;entryY=0.5;entryDx=0;entryDy=0;" edge="1" parent="1" source="cUA_J7pzqEzgrtuvgDa_-46" target="cUA_J7pzqEzgrtuvgDa_-47">
          <mxGeometry width="50" height="50" relative="1" as="geometry">
            <mxPoint x="2490" y="20" as="sourcePoint" />
            <mxPoint x="2540" y="-30" as="targetPoint" />
          </mxGeometry>
        </mxCell>
        <mxCell id="cUA_J7pzqEzgrtuvgDa_-49" value="DC" style="rounded=0;whiteSpace=wrap;html=1;fillColor=#e1d5e7;strokeColor=#9673a6;" vertex="1" parent="1">
          <mxGeometry x="2440" y="-280" width="120" height="40" as="geometry" />
        </mxCell>
        <mxCell id="cUA_J7pzqEzgrtuvgDa_-50" value="Task List" style="rounded=0;whiteSpace=wrap;html=1;fillColor=#ffe6cc;strokeColor=#d79b00;" vertex="1" parent="1">
          <mxGeometry x="2600" y="-280" width="120" height="40" as="geometry" />
        </mxCell>
        <mxCell id="cUA_J7pzqEzgrtuvgDa_-51" value="DMA Engine" style="rounded=0;whiteSpace=wrap;html=1;fillColor=#d5e8d4;strokeColor=#82b366;" vertex="1" parent="1">
          <mxGeometry x="2760" y="-280" width="120" height="40" as="geometry" />
        </mxCell>
        <mxCell id="cUA_J7pzqEzgrtuvgDa_-52" value="Link" style="rounded=0;whiteSpace=wrap;html=1;fillColor=#f8cecc;strokeColor=#b85450;" vertex="1" parent="1">
          <mxGeometry x="2920" y="-280" width="120" height="40" as="geometry" />
        </mxCell>
        <mxCell id="cUA_J7pzqEzgrtuvgDa_-53" value="DMA Engine" style="rounded=0;whiteSpace=wrap;html=1;fillColor=#d5e8d4;strokeColor=#82b366;" vertex="1" parent="1">
          <mxGeometry x="2760" y="-80" width="120" height="40" as="geometry" />
        </mxCell>
        <mxCell id="cUA_J7pzqEzgrtuvgDa_-54" value="" style="endArrow=classic;html=1;rounded=0;exitX=0;exitY=0.5;exitDx=0;exitDy=0;entryX=1;entryY=0.5;entryDx=0;entryDy=0;" edge="1" parent="1" source="cUA_J7pzqEzgrtuvgDa_-55" target="cUA_J7pzqEzgrtuvgDa_-59">
          <mxGeometry width="50" height="50" relative="1" as="geometry">
            <mxPoint x="2570" y="-130" as="sourcePoint" />
            <mxPoint x="2720" y="-20" as="targetPoint" />
          </mxGeometry>
        </mxCell>
        <mxCell id="cUA_J7pzqEzgrtuvgDa_-55" value="Add Reply Value" style="rounded=0;whiteSpace=wrap;html=1;fillColor=#d5e8d4;strokeColor=#82b366;" vertex="1" parent="1">
          <mxGeometry x="2760" width="120" height="40" as="geometry" />
        </mxCell>
        <mxCell id="cUA_J7pzqEzgrtuvgDa_-56" value="" style="edgeStyle=orthogonalEdgeStyle;rounded=0;orthogonalLoop=1;jettySize=auto;html=1;" edge="1" parent="1" source="cUA_J7pzqEzgrtuvgDa_-58" target="cUA_J7pzqEzgrtuvgDa_-59">
          <mxGeometry relative="1" as="geometry" />
        </mxCell>
        <mxCell id="cUA_J7pzqEzgrtuvgDa_-57" value="" style="edgeStyle=orthogonalEdgeStyle;rounded=0;orthogonalLoop=1;jettySize=auto;html=1;" edge="1" parent="1" source="cUA_J7pzqEzgrtuvgDa_-58" target="cUA_J7pzqEzgrtuvgDa_-70">
          <mxGeometry relative="1" as="geometry" />
        </mxCell>
        <mxCell id="cUA_J7pzqEzgrtuvgDa_-58" value="Check" style="rounded=0;whiteSpace=wrap;html=1;fillColor=#e1d5e7;strokeColor=#9673a6;" vertex="1" parent="1">
          <mxGeometry x="2440" y="40" width="120" height="40" as="geometry" />
        </mxCell>
        <mxCell id="cUA_J7pzqEzgrtuvgDa_-59" value="Reply Address" style="rounded=0;whiteSpace=wrap;html=1;fillColor=#ffe6cc;strokeColor=#d79b00;" vertex="1" parent="1">
          <mxGeometry x="2600" y="40" width="120" height="40" as="geometry" />
        </mxCell>
        <mxCell id="cUA_J7pzqEzgrtuvgDa_-60" value="" style="endArrow=classic;html=1;rounded=0;exitX=1;exitY=0.5;exitDx=0;exitDy=0;entryX=0;entryY=0.5;entryDx=0;entryDy=0;" edge="1" parent="1" source="cUA_J7pzqEzgrtuvgDa_-47" target="cUA_J7pzqEzgrtuvgDa_-53">
          <mxGeometry width="50" height="50" relative="1" as="geometry">
            <mxPoint x="2570" y="-130" as="sourcePoint" />
            <mxPoint x="2610" y="-90" as="targetPoint" />
          </mxGeometry>
        </mxCell>
        <mxCell id="cUA_J7pzqEzgrtuvgDa_-61" value="Link" style="rounded=0;whiteSpace=wrap;html=1;fillColor=#f8cecc;strokeColor=#b85450;" vertex="1" parent="1">
          <mxGeometry x="2920" y="-40" width="120" height="40" as="geometry" />
        </mxCell>
        <mxCell id="cUA_J7pzqEzgrtuvgDa_-62" value="" style="endArrow=classic;html=1;rounded=0;exitX=1;exitY=0.5;exitDx=0;exitDy=0;entryX=0;entryY=0.5;entryDx=0;entryDy=0;" edge="1" parent="1" source="cUA_J7pzqEzgrtuvgDa_-53" target="cUA_J7pzqEzgrtuvgDa_-61">
          <mxGeometry width="50" height="50" relative="1" as="geometry">
            <mxPoint x="2730" y="-90" as="sourcePoint" />
            <mxPoint x="2770" y="-50" as="targetPoint" />
          </mxGeometry>
        </mxCell>
        <mxCell id="cUA_J7pzqEzgrtuvgDa_-63" value="" style="endArrow=classic;html=1;rounded=0;exitX=0;exitY=0.5;exitDx=0;exitDy=0;entryX=1;entryY=0.5;entryDx=0;entryDy=0;" edge="1" parent="1" source="cUA_J7pzqEzgrtuvgDa_-61" target="cUA_J7pzqEzgrtuvgDa_-55">
          <mxGeometry width="50" height="50" relative="1" as="geometry">
            <mxPoint x="2890" y="-50" as="sourcePoint" />
            <mxPoint x="2930" y="-10" as="targetPoint" />
          </mxGeometry>
        </mxCell>
        <mxCell id="cUA_J7pzqEzgrtuvgDa_-64" value="" style="edgeStyle=orthogonalEdgeStyle;rounded=0;orthogonalLoop=1;jettySize=auto;html=1;" edge="1" parent="1" source="cUA_J7pzqEzgrtuvgDa_-65" target="cUA_J7pzqEzgrtuvgDa_-67">
          <mxGeometry relative="1" as="geometry" />
        </mxCell>
        <mxCell id="cUA_J7pzqEzgrtuvgDa_-65" value="Check Free Flag" style="rounded=0;whiteSpace=wrap;html=1;fillColor=#e1d5e7;strokeColor=#9673a6;" vertex="1" parent="1">
          <mxGeometry x="2440" y="200" width="120" height="40" as="geometry" />
        </mxCell>
        <mxCell id="cUA_J7pzqEzgrtuvgDa_-66" value="Link" style="rounded=0;whiteSpace=wrap;html=1;fillColor=#f8cecc;strokeColor=#b85450;" vertex="1" parent="1">
          <mxGeometry x="2920" y="120" width="120" height="40" as="geometry" />
        </mxCell>
        <mxCell id="cUA_J7pzqEzgrtuvgDa_-67" value="Free Flag" style="rounded=0;whiteSpace=wrap;html=1;fillColor=#ffe6cc;strokeColor=#d79b00;" vertex="1" parent="1">
          <mxGeometry x="2600" y="200" width="120" height="40" as="geometry" />
        </mxCell>
        <mxCell id="cUA_J7pzqEzgrtuvgDa_-68" value="" style="endArrow=classic;html=1;rounded=0;exitX=0;exitY=0.5;exitDx=0;exitDy=0;entryX=1;entryY=0.5;entryDx=0;entryDy=0;" edge="1" parent="1" source="cUA_J7pzqEzgrtuvgDa_-66" target="cUA_J7pzqEzgrtuvgDa_-67">
          <mxGeometry width="50" height="50" relative="1" as="geometry">
            <mxPoint x="2770" y="30" as="sourcePoint" />
            <mxPoint x="2730" y="70" as="targetPoint" />
          </mxGeometry>
        </mxCell>
        <mxCell id="cUA_J7pzqEzgrtuvgDa_-69" value="" style="edgeStyle=orthogonalEdgeStyle;rounded=0;orthogonalLoop=1;jettySize=auto;html=1;" edge="1" parent="1" source="cUA_J7pzqEzgrtuvgDa_-70" target="cUA_J7pzqEzgrtuvgDa_-65">
          <mxGeometry relative="1" as="geometry" />
        </mxCell>
        <mxCell id="cUA_J7pzqEzgrtuvgDa_-70" value="Ca&amp;amp;Config&amp;amp;DMA" style="rounded=0;whiteSpace=wrap;html=1;fillColor=#e1d5e7;strokeColor=#9673a6;" vertex="1" parent="1">
          <mxGeometry x="2440" y="120" width="120" height="40" as="geometry" />
        </mxCell>
        <mxCell id="cUA_J7pzqEzgrtuvgDa_-71" value="" style="edgeStyle=orthogonalEdgeStyle;rounded=0;orthogonalLoop=1;jettySize=auto;html=1;" edge="1" parent="1" source="cUA_J7pzqEzgrtuvgDa_-72" target="cUA_J7pzqEzgrtuvgDa_-81">
          <mxGeometry relative="1" as="geometry" />
        </mxCell>
        <mxCell id="cUA_J7pzqEzgrtuvgDa_-72" value="Write Config" style="rounded=0;whiteSpace=wrap;html=1;fillColor=#e1d5e7;strokeColor=#9673a6;" vertex="1" parent="1">
          <mxGeometry x="1720" y="-160" width="120" height="40" as="geometry" />
        </mxCell>
        <mxCell id="cUA_J7pzqEzgrtuvgDa_-73" value="Config Post Data" style="rounded=0;whiteSpace=wrap;html=1;fillColor=#ffe6cc;strokeColor=#d79b00;" vertex="1" parent="1">
          <mxGeometry x="1880" y="-120" width="120" height="40" as="geometry" />
        </mxCell>
        <mxCell id="cUA_J7pzqEzgrtuvgDa_-74" value="" style="endArrow=classic;html=1;rounded=0;exitX=1;exitY=0.5;exitDx=0;exitDy=0;entryX=0;entryY=0.5;entryDx=0;entryDy=0;" edge="1" parent="1" source="cUA_J7pzqEzgrtuvgDa_-72" target="cUA_J7pzqEzgrtuvgDa_-73">
          <mxGeometry width="50" height="50" relative="1" as="geometry">
            <mxPoint x="1770" y="20" as="sourcePoint" />
            <mxPoint x="1820" y="-30" as="targetPoint" />
          </mxGeometry>
        </mxCell>
        <mxCell id="cUA_J7pzqEzgrtuvgDa_-75" value="DC" style="rounded=0;whiteSpace=wrap;html=1;fillColor=#e1d5e7;strokeColor=#9673a6;" vertex="1" parent="1">
          <mxGeometry x="1720" y="-280" width="120" height="40" as="geometry" />
        </mxCell>
        <mxCell id="cUA_J7pzqEzgrtuvgDa_-76" value="Task List" style="rounded=0;whiteSpace=wrap;html=1;fillColor=#ffe6cc;strokeColor=#d79b00;" vertex="1" parent="1">
          <mxGeometry x="1880" y="-280" width="120" height="40" as="geometry" />
        </mxCell>
        <mxCell id="cUA_J7pzqEzgrtuvgDa_-77" value="DMA Engine" style="rounded=0;whiteSpace=wrap;html=1;fillColor=#d5e8d4;strokeColor=#82b366;" vertex="1" parent="1">
          <mxGeometry x="2040" y="-280" width="120" height="40" as="geometry" />
        </mxCell>
        <mxCell id="cUA_J7pzqEzgrtuvgDa_-78" value="Link" style="rounded=0;whiteSpace=wrap;html=1;fillColor=#f8cecc;strokeColor=#b85450;" vertex="1" parent="1">
          <mxGeometry x="2200" y="-280" width="120" height="40" as="geometry" />
        </mxCell>
        <mxCell id="cUA_J7pzqEzgrtuvgDa_-79" value="DMA Engine" style="rounded=0;whiteSpace=wrap;html=1;fillColor=#d5e8d4;strokeColor=#82b366;" vertex="1" parent="1">
          <mxGeometry x="2040" y="-80" width="120" height="40" as="geometry" />
        </mxCell>
        <mxCell id="cUA_J7pzqEzgrtuvgDa_-80" value="" style="edgeStyle=orthogonalEdgeStyle;rounded=0;orthogonalLoop=1;jettySize=auto;html=1;" edge="1" parent="1" source="cUA_J7pzqEzgrtuvgDa_-81" target="cUA_J7pzqEzgrtuvgDa_-96">
          <mxGeometry relative="1" as="geometry" />
        </mxCell>
        <mxCell id="cUA_J7pzqEzgrtuvgDa_-81" value="Write Config" style="rounded=0;whiteSpace=wrap;html=1;fillColor=#e1d5e7;strokeColor=#9673a6;" vertex="1" parent="1">
          <mxGeometry x="1720" y="-40" width="120" height="40" as="geometry" />
        </mxCell>
        <mxCell id="cUA_J7pzqEzgrtuvgDa_-82" value="Config Post Flag" style="rounded=0;whiteSpace=wrap;html=1;fillColor=#ffe6cc;strokeColor=#d79b00;" vertex="1" parent="1">
          <mxGeometry x="1880" width="120" height="40" as="geometry" />
        </mxCell>
        <mxCell id="cUA_J7pzqEzgrtuvgDa_-83" value="" style="endArrow=classic;html=1;rounded=0;exitX=1;exitY=0.5;exitDx=0;exitDy=0;entryX=0;entryY=0.5;entryDx=0;entryDy=0;" edge="1" parent="1" source="cUA_J7pzqEzgrtuvgDa_-73" target="cUA_J7pzqEzgrtuvgDa_-79">
          <mxGeometry width="50" height="50" relative="1" as="geometry">
            <mxPoint x="1850" y="-130" as="sourcePoint" />
            <mxPoint x="1890" y="-90" as="targetPoint" />
          </mxGeometry>
        </mxCell>
        <mxCell id="cUA_J7pzqEzgrtuvgDa_-84" value="" style="endArrow=classic;html=1;rounded=0;exitX=1;exitY=0.5;exitDx=0;exitDy=0;entryX=0;entryY=0.5;entryDx=0;entryDy=0;" edge="1" parent="1" source="cUA_J7pzqEzgrtuvgDa_-81" target="cUA_J7pzqEzgrtuvgDa_-82">
          <mxGeometry width="50" height="50" relative="1" as="geometry">
            <mxPoint x="1850" y="-330" as="sourcePoint" />
            <mxPoint x="1890" y="-290" as="targetPoint" />
          </mxGeometry>
        </mxCell>
        <mxCell id="cUA_J7pzqEzgrtuvgDa_-85" value="DMA Engine" style="rounded=0;whiteSpace=wrap;html=1;fillColor=#d5e8d4;strokeColor=#82b366;" vertex="1" parent="1">
          <mxGeometry x="2040" y="40" width="120" height="40" as="geometry" />
        </mxCell>
        <mxCell id="cUA_J7pzqEzgrtuvgDa_-86" value="" style="endArrow=classic;html=1;rounded=0;exitX=0;exitY=0.5;exitDx=0;exitDy=0;entryX=1;entryY=0.5;entryDx=0;entryDy=0;" edge="1" parent="1" source="cUA_J7pzqEzgrtuvgDa_-87">
          <mxGeometry width="50" height="50" relative="1" as="geometry">
            <mxPoint x="1850" y="-10" as="sourcePoint" />
            <mxPoint x="2000" y="180" as="targetPoint" />
          </mxGeometry>
        </mxCell>
        <mxCell id="cUA_J7pzqEzgrtuvgDa_-87" value="Add Reply Value" style="rounded=0;whiteSpace=wrap;html=1;fillColor=#d5e8d4;strokeColor=#82b366;" vertex="1" parent="1">
          <mxGeometry x="2040" y="120" width="120" height="40" as="geometry" />
        </mxCell>
        <mxCell id="cUA_J7pzqEzgrtuvgDa_-88" value="" style="endArrow=classic;html=1;rounded=0;exitX=1;exitY=0.5;exitDx=0;exitDy=0;entryX=0;entryY=0.5;entryDx=0;entryDy=0;" edge="1" parent="1" target="cUA_J7pzqEzgrtuvgDa_-85">
          <mxGeometry width="50" height="50" relative="1" as="geometry">
            <mxPoint x="2000" y="20" as="sourcePoint" />
            <mxPoint x="1890" y="30" as="targetPoint" />
          </mxGeometry>
        </mxCell>
        <mxCell id="cUA_J7pzqEzgrtuvgDa_-89" value="Reply Address" style="rounded=0;whiteSpace=wrap;html=1;fillColor=#ffe6cc;strokeColor=#d79b00;" vertex="1" parent="1">
          <mxGeometry x="1880" y="160" width="120" height="40" as="geometry" />
        </mxCell>
        <mxCell id="cUA_J7pzqEzgrtuvgDa_-90" value="" style="edgeStyle=orthogonalEdgeStyle;rounded=0;orthogonalLoop=1;jettySize=auto;html=1;" edge="1" parent="1" source="cUA_J7pzqEzgrtuvgDa_-92" target="cUA_J7pzqEzgrtuvgDa_-89">
          <mxGeometry relative="1" as="geometry" />
        </mxCell>
        <mxCell id="cUA_J7pzqEzgrtuvgDa_-91" value="" style="edgeStyle=orthogonalEdgeStyle;rounded=0;orthogonalLoop=1;jettySize=auto;html=1;" edge="1" parent="1" source="cUA_J7pzqEzgrtuvgDa_-92" target="cUA_J7pzqEzgrtuvgDa_-106">
          <mxGeometry relative="1" as="geometry" />
        </mxCell>
        <mxCell id="cUA_J7pzqEzgrtuvgDa_-92" value="Check" style="rounded=0;whiteSpace=wrap;html=1;fillColor=#e1d5e7;strokeColor=#9673a6;" vertex="1" parent="1">
          <mxGeometry x="1720" y="160" width="120" height="40" as="geometry" />
        </mxCell>
        <mxCell id="cUA_J7pzqEzgrtuvgDa_-93" value="Link" style="rounded=0;whiteSpace=wrap;html=1;fillColor=#f8cecc;strokeColor=#b85450;" vertex="1" parent="1">
          <mxGeometry x="2200" y="-40" width="120" height="40" as="geometry" />
        </mxCell>
        <mxCell id="cUA_J7pzqEzgrtuvgDa_-94" value="" style="endArrow=classic;html=1;rounded=0;exitX=1;exitY=0.5;exitDx=0;exitDy=0;entryX=0;entryY=0.5;entryDx=0;entryDy=0;" edge="1" parent="1" source="cUA_J7pzqEzgrtuvgDa_-79" target="cUA_J7pzqEzgrtuvgDa_-93">
          <mxGeometry width="50" height="50" relative="1" as="geometry">
            <mxPoint x="2010" y="-90" as="sourcePoint" />
            <mxPoint x="2050" y="-50" as="targetPoint" />
          </mxGeometry>
        </mxCell>
        <mxCell id="cUA_J7pzqEzgrtuvgDa_-95" value="" style="edgeStyle=orthogonalEdgeStyle;rounded=0;orthogonalLoop=1;jettySize=auto;html=1;" edge="1" parent="1" source="cUA_J7pzqEzgrtuvgDa_-96" target="cUA_J7pzqEzgrtuvgDa_-92">
          <mxGeometry relative="1" as="geometry" />
        </mxCell>
        <mxCell id="cUA_J7pzqEzgrtuvgDa_-96" value="Ca&amp;amp;Config&amp;amp;DMA" style="rounded=0;whiteSpace=wrap;html=1;fillColor=#e1d5e7;strokeColor=#9673a6;" vertex="1" parent="1">
          <mxGeometry x="1720" y="60" width="120" height="40" as="geometry" />
        </mxCell>
        <mxCell id="cUA_J7pzqEzgrtuvgDa_-97" value="Link" style="rounded=0;whiteSpace=wrap;html=1;fillColor=#f8cecc;strokeColor=#b85450;" vertex="1" parent="1">
          <mxGeometry x="2200" y="80" width="120" height="40" as="geometry" />
        </mxCell>
        <mxCell id="cUA_J7pzqEzgrtuvgDa_-98" value="" style="endArrow=classic;html=1;rounded=0;exitX=1;exitY=0.5;exitDx=0;exitDy=0;entryX=0;entryY=0.5;entryDx=0;entryDy=0;" edge="1" parent="1" target="cUA_J7pzqEzgrtuvgDa_-97">
          <mxGeometry width="50" height="50" relative="1" as="geometry">
            <mxPoint x="2160" y="60" as="sourcePoint" />
            <mxPoint x="2050" y="70" as="targetPoint" />
          </mxGeometry>
        </mxCell>
        <mxCell id="cUA_J7pzqEzgrtuvgDa_-99" value="" style="endArrow=classic;html=1;rounded=0;exitX=0;exitY=0.5;exitDx=0;exitDy=0;entryX=1;entryY=0.5;entryDx=0;entryDy=0;" edge="1" parent="1" source="cUA_J7pzqEzgrtuvgDa_-97">
          <mxGeometry width="50" height="50" relative="1" as="geometry">
            <mxPoint x="2170" y="70" as="sourcePoint" />
            <mxPoint x="2160" y="140" as="targetPoint" />
          </mxGeometry>
        </mxCell>
        <mxCell id="cUA_J7pzqEzgrtuvgDa_-100" value="" style="edgeStyle=orthogonalEdgeStyle;rounded=0;orthogonalLoop=1;jettySize=auto;html=1;" edge="1" parent="1" source="cUA_J7pzqEzgrtuvgDa_-101" target="cUA_J7pzqEzgrtuvgDa_-103">
          <mxGeometry relative="1" as="geometry" />
        </mxCell>
        <mxCell id="cUA_J7pzqEzgrtuvgDa_-101" value="Check Free Flag" style="rounded=0;whiteSpace=wrap;html=1;fillColor=#e1d5e7;strokeColor=#9673a6;" vertex="1" parent="1">
          <mxGeometry x="1720" y="320" width="120" height="40" as="geometry" />
        </mxCell>
        <mxCell id="cUA_J7pzqEzgrtuvgDa_-102" value="Link" style="rounded=0;whiteSpace=wrap;html=1;fillColor=#f8cecc;strokeColor=#b85450;" vertex="1" parent="1">
          <mxGeometry x="2200" y="240" width="120" height="40" as="geometry" />
        </mxCell>
        <mxCell id="cUA_J7pzqEzgrtuvgDa_-103" value="Free Flag" style="rounded=0;whiteSpace=wrap;html=1;fillColor=#ffe6cc;strokeColor=#d79b00;" vertex="1" parent="1">
          <mxGeometry x="1880" y="320" width="120" height="40" as="geometry" />
        </mxCell>
        <mxCell id="cUA_J7pzqEzgrtuvgDa_-104" value="" style="endArrow=classic;html=1;rounded=0;exitX=0;exitY=0.5;exitDx=0;exitDy=0;entryX=1;entryY=0.5;entryDx=0;entryDy=0;" edge="1" parent="1" source="cUA_J7pzqEzgrtuvgDa_-102" target="cUA_J7pzqEzgrtuvgDa_-103">
          <mxGeometry width="50" height="50" relative="1" as="geometry">
            <mxPoint x="2050" y="150" as="sourcePoint" />
            <mxPoint x="2010" y="190" as="targetPoint" />
          </mxGeometry>
        </mxCell>
        <mxCell id="cUA_J7pzqEzgrtuvgDa_-105" value="" style="edgeStyle=orthogonalEdgeStyle;rounded=0;orthogonalLoop=1;jettySize=auto;html=1;" edge="1" parent="1" source="cUA_J7pzqEzgrtuvgDa_-106" target="cUA_J7pzqEzgrtuvgDa_-101">
          <mxGeometry relative="1" as="geometry" />
        </mxCell>
        <mxCell id="cUA_J7pzqEzgrtuvgDa_-106" value="Ca&amp;amp;Config&amp;amp;DMA" style="rounded=0;whiteSpace=wrap;html=1;fillColor=#e1d5e7;strokeColor=#9673a6;" vertex="1" parent="1">
          <mxGeometry x="1720" y="240" width="120" height="40" as="geometry" />
        </mxCell>
        <mxCell id="cUA_J7pzqEzgrtuvgDa_-107" value="" style="endArrow=none;dashed=1;html=1;rounded=0;strokeWidth=3;" edge="1" parent="1">
          <mxGeometry width="50" height="50" relative="1" as="geometry">
            <mxPoint x="1660" y="580" as="sourcePoint" />
            <mxPoint x="1660" y="-440" as="targetPoint" />
          </mxGeometry>
        </mxCell>
        <mxCell id="cUA_J7pzqEzgrtuvgDa_-108" value="" style="endArrow=none;dashed=1;html=1;rounded=0;strokeWidth=3;" edge="1" parent="1">
          <mxGeometry width="50" height="50" relative="1" as="geometry">
            <mxPoint x="2380" y="580" as="sourcePoint" />
            <mxPoint x="2380" y="-440" as="targetPoint" />
          </mxGeometry>
        </mxCell>
      </root>
    </mxGraphModel>
  </diagram>
</mxfile>
